<svg width="32" height="32" viewBox="0 0 32 32" fill="none" xmlns="http://www.w3.org/2000/svg">
<g id="majesticons:bookmark-line" clip-path="url(#clip0_136_599)">
<path id="Vector" d="M25.5239 4H9.8096C8.97607 4 8.17667 4.33112 7.58727 4.92052C6.99787 5.50992 6.66675 6.30932 6.66675 7.14286V30.9311C6.66679 31.0687 6.70297 31.2039 6.77166 31.3231C6.84034 31.4423 6.93914 31.5414 7.05815 31.6105C7.17716 31.6795 7.31222 31.7161 7.44981 31.7166C7.5874 31.7171 7.7227 31.6814 7.84218 31.6131L16.1079 26.891C16.5827 26.6198 17.12 26.4772 17.6667 26.4772C18.2135 26.4772 18.7508 26.6198 19.2256 26.891L27.4913 31.6147C27.6109 31.683 27.7464 31.7187 27.8841 31.7182C28.0218 31.7176 28.157 31.6809 28.276 31.6117C28.3951 31.5424 28.4939 31.4431 28.5624 31.3237C28.631 31.2042 28.667 31.0689 28.6667 30.9311V7.14286C28.6667 6.30932 28.3356 5.50992 27.7462 4.92052C27.1568 4.33112 26.3574 4 25.5239 4Z" stroke="black" stroke-width="2.66667" stroke-linecap="round" stroke-linejoin="round"/>
</g>
<defs>
<clipPath id="clip0_136_599">
<rect width="32" height="32" fill="white"/>
</clipPath>
</defs>
</svg>
