<svg width="32" height="32" viewBox="0 0 32 32" fill="none" xmlns="http://www.w3.org/2000/svg">
<g id="majesticons:bookmark">
<path id="Vector" fill-rule="evenodd" clip-rule="evenodd" d="M9.45825 2.66663C8.36423 2.66663 7.31502 3.10122 6.54144 3.87481C5.76785 4.6484 5.33325 5.69761 5.33325 6.79163V27.6064C5.33313 27.9677 5.42791 28.3227 5.60812 28.6358C5.78833 28.949 6.04763 29.2093 6.36008 29.3907C6.67252 29.5721 7.02714 29.6683 7.38844 29.6696C7.74974 29.6709 8.10503 29.5772 8.41875 29.398L15.6513 25.2648C15.859 25.1461 16.094 25.0837 16.3333 25.0837C16.5725 25.0837 16.8075 25.1461 17.0153 25.2648L24.2478 29.398C24.5615 29.5772 24.9168 29.6709 25.2781 29.6696C25.6394 29.6683 25.994 29.5721 26.3064 29.3907C26.6189 29.2093 26.8782 28.949 27.0584 28.6358C27.2386 28.3227 27.3334 27.9677 27.3333 27.6064V6.79163C27.3333 5.69761 26.8987 4.6484 26.1251 3.87481C25.3515 3.10122 24.3023 2.66663 23.2083 2.66663H9.45825Z" fill="black"/>
</g>
</svg>
